<?xml version="1.0" standalone="no"?>
<!DOCTYPE svg PUBLIC "-//W3C//DTD SVG 20010904//EN"
 "http://www.w3.org/TR/2001/REC-SVG-20010904/DTD/svg10.dtd">
<svg version="1.0" xmlns="http://www.w3.org/2000/svg"
 width="512.000000pt" height="512.000000pt" viewBox="0 0 512.000000 512.000000"
 preserveAspectRatio="xMidYMid meet">

<g transform="translate(0.000000,512.000000) scale(0.100000,-0.100000)"
fill="#000000" stroke="none">
<path d="M2716 4938 c-334 -29 -709 -161 -991 -350 -333 -222 -624 -556 -806
-923 -429 -869 -263 -1912 416 -2614 392 -405 889 -645 1455 -702 380 -38 852
59 1215 250 172 90 255 148 255 175 0 46 -19 49 -147 22 -589 -124 -1188 14
-1690 390 -105 80 -278 248 -367 358 -251 311 -410 685 -461 1086 -23 176 -17
463 13 630 80 445 283 835 601 1151 184 183 332 290 556 404 98 49 121 65 123
85 4 27 -21 51 -52 49 -12 -1 -66 -6 -120 -11z"/>
<path d="M3797 3438 c-220 -219 -204 -191 -256 -441 -33 -155 -56 -211 -111
-261 -68 -61 -111 -77 -251 -91 -152 -16 -255 -48 -355 -111 -152 -94 -270
-247 -318 -415 -17 -58 -54 -305 -81 -542 l-17 -148 23 -26 c37 -39 195 -155
290 -211 339 -204 777 -304 1139 -263 154 18 150 16 150 63 0 52 -11 71 -62
101 -85 50 -112 106 -143 301 -44 275 -34 335 87 476 206 244 248 412 157 638
-48 120 -39 241 23 316 42 51 98 76 174 76 71 0 78 5 100 80 l16 52 -30 32
c-40 42 -69 101 -77 161 -14 96 -56 141 -171 185 -41 15 -75 36 -87 52 -18 24
-19 31 -7 93 7 36 10 68 7 71 -3 3 -93 -81 -200 -188z"/>
<path d="M1311 589 c-81 -14 -228 -66 -298 -105 -72 -40 -203 -142 -227 -175
-31 -45 -17 -102 31 -127 39 -21 59 -13 144 57 92 77 209 141 309 167 52 14
109 18 290 19 124 0 243 5 264 9 l39 9 -29 15 c-16 8 -74 42 -129 75 l-100 61
-120 2 c-66 2 -144 -1 -174 -7z"/>
</g>
</svg>
