<?xml version="1.0" encoding="UTF-8" standalone="no"?>
<!DOCTYPE svg PUBLIC "-//W3C//DTD SVG 1.1//EN" "http://www.w3.org/Graphics/SVG/1.1/DTD/svg11.dtd">
<svg width="100%" height="100%" viewBox="0 0 512 512" version="1.1" xmlns="http://www.w3.org/2000/svg" xmlns:xlink="http://www.w3.org/1999/xlink" xml:space="preserve" xmlns:serif="http://www.serif.com/" style="fill-rule:evenodd;clip-rule:evenodd;stroke-linejoin:round;stroke-miterlimit:2;">
    <g transform="matrix(0.1,0,0,-0.1,0,512)">
        <path d="M2716,4938C2382,4909 2007,4777 1725,4588C1392,4366 1101,4032 919,3665C490,2796 656,1753 1335,1051C1727,646 2224,406 2790,349C3170,311 3642,408 4005,599C4177,689 4260,747 4260,774C4260,820 4241,823 4113,796C3524,672 2925,810 2423,1186C2318,1266 2145,1434 2056,1544C1805,1855 1646,2229 1595,2630C1572,2806 1578,3093 1608,3260C1688,3705 1891,4095 2209,4411C2393,4594 2541,4701 2765,4815C2863,4864 2886,4880 2888,4900C2892,4927 2867,4951 2836,4949C2824,4948 2770,4943 2716,4938Z" style="fill:url(#_Linear1);fill-rule:nonzero;stroke:rgb(34,2,0);stroke-width:10px;"/>
        <path d="M3797,3438C3577,3219 3593,3247 3541,2997C3508,2842 3485,2786 3430,2736C3362,2675 3319,2659 3179,2645C3027,2629 2924,2597 2824,2534C2672,2440 2554,2287 2506,2119C2489,2061 2452,1814 2425,1577L2408,1429L2431,1403C2468,1364 2626,1248 2721,1192C3060,988 3498,888 3860,929C4014,947 4010,945 4010,992C4010,1044 3999,1063 3948,1093C3863,1143 3836,1199 3805,1394C3761,1669 3771,1729 3892,1870C4098,2114 4140,2282 4049,2508C4001,2628 4010,2749 4072,2824C4114,2875 4170,2900 4246,2900C4317,2900 4324,2905 4346,2980L4362,3032L4332,3064C4292,3106 4263,3165 4255,3225C4241,3321 4199,3366 4084,3410C4043,3425 4009,3446 3997,3462C3979,3486 3978,3493 3990,3555C3997,3591 4000,3623 3997,3626C3994,3629 3904,3545 3797,3438Z" style="fill:url(#_Linear2);fill-rule:nonzero;stroke:rgb(34,2,0);stroke-width:10px;"/>
        <path d="M1311,589C1230,575 1083,523 1013,484C941,444 810,342 786,309C755,264 769,207 817,182C856,161 876,169 961,239C1053,316 1170,380 1270,406C1322,420 1379,424 1560,425C1684,425 1803,430 1824,434L1863,443L1834,458C1818,466 1760,500 1705,533L1605,594L1485,596C1419,598 1341,595 1311,589Z" style="fill:url(#_Linear3);fill-rule:nonzero;stroke:rgb(34,2,0);stroke-width:10px;"/>
    </g>
    <defs>
        <linearGradient id="_Linear1" x1="0" y1="0" x2="1" y2="0" gradientUnits="userSpaceOnUse" gradientTransform="matrix(3576.98,0,0,4608.26,683.023,2644.99)"><stop offset="0" style="stop-color:white;stop-opacity:1"/><stop offset="1" style="stop-color:rgb(124,0,15);stop-opacity:1"/></linearGradient>
        <linearGradient id="_Linear2" x1="0" y1="0" x2="1" y2="0" gradientUnits="userSpaceOnUse" gradientTransform="matrix(1954,0,0,2706.14,2408,2273.01)"><stop offset="0" style="stop-color:white;stop-opacity:1"/><stop offset="1" style="stop-color:rgb(172,0,38);stop-opacity:1"/></linearGradient>
        <linearGradient id="_Linear3" x1="0" y1="0" x2="1" y2="0" gradientUnits="userSpaceOnUse" gradientTransform="matrix(1093.5,0,0,424.804,769.503,384.215)"><stop offset="0" style="stop-color:white;stop-opacity:1"/><stop offset="1" style="stop-color:rgb(172,0,38);stop-opacity:1"/></linearGradient>
    </defs>
</svg>
